<svg width="199" height="83" viewBox="0 0 199 83" fill="none" xmlns="http://www.w3.org/2000/svg">
<path d="M38.712 5.07812H7.32628C6.48755 5.07812 5.80762 5.75756 5.80762 6.59568V37.9585C5.80762 38.7966 6.48755 39.4761 7.32628 39.4761H38.712C39.5507 39.4761 40.2306 38.7966 40.2306 37.9585V6.59568C40.2306 5.75756 39.5507 5.07812 38.712 5.07812Z" stroke="white" stroke-width="1.97332"/>
<path d="M18.7588 14.4766H22.0561C23.3827 14.4766 24.4022 14.6356 25.1147 14.9538C25.8273 15.2643 26.3882 15.7453 26.7975 16.3967C27.2144 17.0482 27.4229 17.7715 27.4229 18.5669C27.4229 19.3092 27.241 19.9871 26.8771 20.6006C26.5133 21.2066 25.9789 21.6989 25.2739 22.0777C26.1456 22.3731 26.8165 22.7215 27.2864 23.123C27.7564 23.5169 28.1203 23.9978 28.378 24.566C28.6433 25.1265 28.776 25.7362 28.776 26.3952C28.776 27.7359 28.2832 28.8721 27.2978 29.8038C26.32 30.7279 25.0048 31.19 23.3524 31.19H18.7588V14.4766ZM20.3961 16.1127V21.4641H21.3512C22.511 21.4641 23.3637 21.3581 23.9095 21.146C24.4552 20.9264 24.8873 20.5855 25.2057 20.1234C25.5241 19.6538 25.6833 19.135 25.6833 18.5669C25.6833 17.8018 25.4142 17.2034 24.876 16.7717C24.3453 16.3323 23.4964 16.1127 22.329 16.1127H20.3961ZM20.3961 23.1457V29.5538H22.4655C23.6859 29.5538 24.5803 29.4364 25.1488 29.2016C25.7174 28.9592 26.1722 28.5843 26.5133 28.0767C26.862 27.5693 27.0363 27.0201 27.0363 26.4293C27.0363 25.687 26.7937 25.0394 26.3086 24.4864C25.8235 23.9334 25.1564 23.5547 24.3075 23.3502C23.7389 23.2139 22.7497 23.1457 21.3398 23.1457H20.3961Z" fill="white"/>
<path d="M77.1817 5.07812H45.796C44.9573 5.07812 44.2773 5.75756 44.2773 6.59568V37.9585C44.2773 38.7966 44.9573 39.4761 45.796 39.4761H77.1817C78.0204 39.4761 78.7004 38.7966 78.7004 37.9585V6.59568C78.7004 5.75756 78.0204 5.07812 77.1817 5.07812Z" stroke="white" stroke-width="1.97332"/>
<path d="M56.7891 15.4844H58.4714V30.5843H64.896V32.1977H56.7891V15.4844Z" fill="white"/>
<path d="M115.655 5.07812H84.2696C83.4309 5.07812 82.751 5.75756 82.751 6.59568V37.9585C82.751 38.7966 83.4309 39.4761 84.2696 39.4761H115.655C116.494 39.4761 117.174 38.7966 117.174 37.9585V6.59568C117.174 5.75756 116.494 5.07812 115.655 5.07812Z" stroke="white" stroke-width="1.97332"/>
<path d="M100.356 15.0703C102.888 15.0703 105.007 15.9149 106.713 17.604C108.418 19.2931 109.271 21.3724 109.271 23.8417C109.271 26.2883 108.418 28.3638 106.713 30.068C105.014 31.7723 102.942 32.6245 100.493 32.6245C98.014 32.6245 95.9223 31.7761 94.2163 30.0794C92.5109 28.3827 91.6582 26.33 91.6582 23.9212C91.6582 22.3154 92.0451 20.827 92.8182 19.456C93.5986 18.085 94.6601 17.0132 96.0018 16.2406C97.3435 15.4604 98.7949 15.0703 100.356 15.0703ZM100.436 16.7064C99.2003 16.7064 98.0294 17.0283 96.9228 17.6722C95.8161 18.316 94.9516 19.1833 94.3302 20.2741C93.7089 21.3648 93.398 22.5805 93.398 23.9212C93.398 25.9058 94.084 27.5835 95.4559 28.9545C96.8355 30.318 98.4953 30.9997 100.436 30.9997C101.732 30.9997 102.93 30.6854 104.029 30.0567C105.136 29.428 105.996 28.5683 106.61 27.4775C107.232 26.3868 107.542 25.1748 107.542 23.8417C107.542 22.5161 107.232 21.3193 106.61 20.2514C105.996 19.1757 105.128 18.316 104.006 17.6722C102.885 17.0283 101.694 16.7064 100.436 16.7064Z" fill="white"/>
<path d="M154.129 5.07812H122.743C121.905 5.07812 121.225 5.75756 121.225 6.59568V37.9585C121.225 38.7966 121.905 39.4761 122.743 39.4761H154.129C154.968 39.4761 155.648 38.7966 155.648 37.9585V6.59568C155.648 5.75756 154.968 5.07812 154.129 5.07812Z" stroke="white" stroke-width="1.97332"/>
<path d="M147.085 18.5925L145.766 19.6037C145.038 18.6569 144.162 17.9411 143.139 17.4563C142.123 16.9639 141.005 16.7178 139.785 16.7178C138.451 16.7178 137.215 17.0397 136.078 17.6835C134.942 18.3198 134.058 19.1795 133.429 20.2627C132.808 21.3383 132.497 22.5502 132.497 23.8985C132.497 25.9361 133.194 27.6366 134.589 29C135.991 30.3635 137.757 31.0451 139.887 31.0451C142.23 31.0451 144.189 30.1286 145.766 28.2956L147.085 29.2954C146.251 30.3559 145.208 31.1777 143.958 31.7609C142.715 32.3366 141.324 32.6245 139.785 32.6245C136.859 32.6245 134.551 31.6511 132.861 29.7044C131.443 28.0608 130.734 26.0762 130.734 23.7508C130.734 21.3042 131.591 19.2477 133.304 17.5813C135.025 15.9073 137.177 15.0703 139.762 15.0703C141.324 15.0703 142.734 15.3808 143.992 16.002C145.25 16.6155 146.281 17.479 147.085 18.5925Z" fill="white"/>
<path d="M192.604 5.07812H161.218C160.379 5.07812 159.699 5.75756 159.699 6.59568V37.9585C159.699 38.7966 160.379 39.4761 161.218 39.4761H192.604C193.442 39.4761 194.122 38.7966 194.122 37.9585V6.59568C194.122 5.75756 193.442 5.07812 192.604 5.07812Z" stroke="white" stroke-width="1.97332"/>
<path d="M172.574 15.4844H174.28V21.7561L180.954 15.4844H183.217L175.178 22.9832L183.842 32.1977H181.625L174.28 24.4034V32.1977H172.574V15.4844Z" fill="white"/>
<path d="M38.712 43.5234H7.32628C6.48755 43.5234 5.80762 44.2029 5.80762 45.041V76.4038C5.80762 77.2419 6.48755 77.9214 7.32628 77.9214H38.712C39.5507 77.9214 40.2306 77.2419 40.2306 76.4038V45.041C40.2306 44.2029 39.5507 43.5234 38.712 43.5234Z" stroke="white" stroke-width="1.97332"/>
<path d="M17.5264 67.5362L18.9477 66.6841C19.9482 68.5246 21.1042 69.4449 22.4156 69.4449C22.9765 69.4449 23.5033 69.3162 23.996 69.0589C24.4887 68.7938 24.864 68.4416 25.1217 68.0022C25.3794 67.5628 25.5083 67.0968 25.5083 66.6046C25.5083 66.0442 25.3187 65.4952 24.9397 64.9573C24.4167 64.215 23.4616 63.3208 22.0745 62.276C20.6797 61.2229 19.8118 60.4616 19.4707 59.9919C18.8794 59.2044 18.5838 58.3523 18.5838 57.4357C18.5838 56.7087 18.7581 56.0458 19.1069 55.4474C19.4555 54.8486 19.9444 54.379 20.5736 54.0386C21.2103 53.6899 21.9001 53.5156 22.643 53.5156C23.4313 53.5156 24.1666 53.7125 24.8488 54.1068C25.5386 54.4928 26.2663 55.2085 27.0319 56.2539L25.6675 57.288C25.0383 56.4549 24.5001 55.9053 24.0528 55.6402C23.6132 55.3752 23.1319 55.2429 22.6089 55.2429C21.9342 55.2429 21.3809 55.4474 20.9488 55.8561C20.5243 56.2652 20.3121 56.7692 20.3121 57.3675C20.3121 57.731 20.3879 58.0832 20.5395 58.4241C20.6911 58.7651 20.9677 59.1362 21.3695 59.5377C21.5893 59.7494 22.3095 60.3062 23.5298 61.2075C24.9776 62.276 25.9706 63.2265 26.5088 64.0596C27.047 64.8927 27.3161 65.73 27.3161 66.5708C27.3161 67.7823 26.8537 68.8353 25.929 69.7289C25.0118 70.6231 23.8937 71.0696 22.5748 71.0696C21.559 71.0696 20.638 70.801 19.8118 70.2632C18.9856 69.7177 18.2238 68.8087 17.5264 67.5362Z" fill="white"/>
<path d="M77.1817 43.5234H45.796C44.9573 43.5234 44.2773 44.2029 44.2773 45.041V76.4038C44.2773 77.2419 44.9573 77.9214 45.796 77.9214H77.1817C78.0204 77.9214 78.7004 77.2419 78.7004 76.4038V45.041C78.7004 44.2029 78.0204 43.5234 77.1817 43.5234Z" stroke="white" stroke-width="1.97332"/>
<path d="M57.4141 55.5544V53.9297H66.5897V55.5544H62.8602V70.6434H61.1548V55.5544H57.4141Z" fill="white"/>
<path d="M115.655 43.5234H84.2696C83.4309 43.5234 82.751 44.2029 82.751 45.041V76.4038C82.751 77.2419 83.4309 77.9214 84.2696 77.9214H115.655C116.494 77.9214 117.174 77.2419 117.174 76.4038V45.041C117.174 44.2029 116.494 43.5234 115.655 43.5234Z" stroke="white" stroke-width="1.97332"/>
<path d="M100.718 53.9297L108.518 70.6434H106.722L104.095 65.1438H96.8863L94.2712 70.6434H92.4062L100.309 53.9297H100.718ZM100.514 57.4749L97.6369 63.5308H103.356L100.514 57.4749Z" fill="white"/>
<path d="M154.129 43.5234H122.743C121.905 43.5234 121.225 44.2029 121.225 45.041V76.4038C121.225 77.2419 121.905 77.9214 122.743 77.9214H154.129C154.968 77.9214 155.648 77.2419 155.648 76.4038V45.041C155.648 44.2029 154.968 43.5234 154.129 43.5234Z" stroke="white" stroke-width="1.97332"/>
<path d="M147.085 57.0378L145.766 58.0493C145.038 57.1024 144.162 56.3867 143.139 55.9017C142.123 55.4095 141.005 55.1634 139.785 55.1634C138.451 55.1634 137.215 55.4854 136.078 56.1288C134.941 56.7651 134.058 57.6248 133.429 58.7082C132.807 59.7838 132.497 60.9958 132.497 62.3442C132.497 64.3816 133.194 66.0822 134.589 67.4454C135.991 68.8087 137.757 69.4905 139.887 69.4905C142.23 69.4905 144.189 68.5739 145.766 66.741L147.085 67.7407C146.25 68.8015 145.208 69.6233 143.958 70.2063C142.714 70.782 141.323 71.0696 139.785 71.0696C136.859 71.0696 134.551 70.0965 132.861 68.1499C131.443 66.5062 130.734 64.5216 130.734 62.196C130.734 59.7494 131.591 57.693 133.304 56.0268C135.025 54.3528 137.177 53.5156 139.762 53.5156C141.323 53.5156 142.733 53.8263 143.992 54.4472C145.25 55.0609 146.281 55.9242 147.085 57.0378Z" fill="white"/>
<path d="M192.604 43.5234H161.218C160.379 43.5234 159.699 44.2029 159.699 45.041V76.4038C159.699 77.2419 160.379 77.9214 161.218 77.9214H192.604C193.442 77.9214 194.122 77.2419 194.122 76.4038V45.041C194.122 44.2029 193.442 43.5234 192.604 43.5234Z" stroke="white" stroke-width="1.97332"/>
<path d="M172.572 53.9297H174.278V60.2014L180.952 53.9297H183.215L175.176 61.4288L183.84 70.6434H181.623L174.278 62.849V70.6434H172.572V53.9297Z" fill="white"/>
</svg>
